<svg xmlns="http://www.w3.org/2000/svg" viewBox="0 0 1404 672"><defs><style>.cls-1{fill:#fefefe;}</style></defs><g id="Слой_2" data-name="Слой 2"><g id="Слой_1-2" data-name="Слой 1"><path class="cls-1" d="M1404,269h-34.62c-4-6.14-8.24-12.21-12.52-18.22s-8.39-12.26-12.76-18.27c-4.9-6.73-9.15-13.95-14.19-20.57-3.93-5.18-7-10.92-11.25-15.9-2.43-2.86-4.12-6.3-6.39-9.34-4.06-5.42-7.4-11.36-11.66-16.67-2.44-3.05-4.34-6.55-6.63-9.73-3.78-5.25-7-10.84-11-15.94-2.52-3.21-4.54-6.8-7-10.1-3.83-5.22-7.06-10.84-11.08-15.93-2.52-3.2-4.5-6.83-6.93-10.11-3.85-5.2-7.07-10.83-11.09-15.93-2.53-3.19-4.44-6.87-6.92-10.1-4-5.27-7-11.33-11.55-16.21-.55-.59,0-1.67-1.37-1.94V268.9h-37V0h36c0,.5-.22,1.22,0,1.47,3.12,3,4.81,7.09,7.46,10.39,5.88,7.31,10.94,15.19,16.34,22.8,5.82,8.2,11.62,16.43,17.19,24.81,3.85,5.78,8,11.35,12,17,3,4.26,5.68,8.73,8.9,12.78s6.06,8.52,9,12.81c3.84,5.55,7.61,11.19,11.57,16.63,5.5,7.56,10.72,15.32,16.31,22.82,4.79,6.43,9.26,13.14,13.83,19.75,5.28,7.65,10.55,15.29,15.93,22.88,1.26,1.76,2.33,3.7,3.6,5.48l9.84,13.81V0h36Z"/><path class="cls-1" d="M616,0c2,4.67,4.14,9.28,6,14,1.88,4.89,3.87,9.72,5.93,14.54,2.47,5.79,4.66,11.72,7.06,17.56,1.7,4.13,3.4,8.27,5,12.43,3.27,8.64,7,17.08,10.26,25.75,1.7,4.56,3.68,9.13,5.7,13.63,2.66,5.87,5,11.9,7.17,18,1.37,3.91,3.41,7.58,4.83,11.48,3.17,8.68,7,17.11,10.28,25.74,2.43,6.29,5,12.58,7.74,18.78,2.61,5.89,5.07,11.89,7.16,18,1.33,3.93,3.33,7.61,4.86,11.48,3.39,8.59,7.09,17.05,10.15,25.78,1.62,4.64,4,9,5.9,13.55,2.45,6,4.66,12.06,7,18.07,1.3,3.26,2.73,6.46,4.22,10h-42c-3.4-8.44-6.82-17.18-10.37-25.86-2.85-7-5.27-14.13-8.34-21-2.88-6.46-5.2-13.16-7.8-19.83H538.54c-1.65.55-1.84,2.15-2.2,3.19-7.36,21.25-16,42-23.77,63.5H472.26c-.41-1.16,0-2,.45-3.13,2.69-7.21,6-14.17,8.36-21.53,1.25-3.94,3.38-7.6,4.76-11.51,2.58-7.26,6-14.17,8.24-21.59,1.13-3.81,3-7.41,4.52-11.11,3-7.26,5.89-14.56,8.45-22,1.31-3.77,3.17-7.35,4.59-11.09,2.15-5.61,4.71-11,6.44-16.83,1.14-3.81,3.08-7.38,4.52-11.11,2.82-7.33,6.17-14.44,8.48-22,1.16-3.8,3.16-7.34,4.58-11.09,2.12-5.61,4.7-11,6.43-16.83,1.13-3.82,3.1-7.37,4.52-11.11,2.8-7.34,6-14.49,8.54-22,1.25-3.75,3.09-7.38,4.51-11.12,2.12-5.61,4.69-11,6.44-16.83,1.19-3.95,3.54-7.55,4.83-11.48C572.76,10.91,575.75,5.78,577,0ZM596.57,47.93c-.81.09-1.08.06-1.11.13Q572.21,107.9,549,167.74c-.1.25.09.61.17,1.09h96.25c-1.41-1.79-1.46-3.62-2.28-5.33a131.71,131.71,0,0,1-5-12.39c-3.12-8.71-7.2-17-10.29-25.72-1.38-3.91-3.28-7.64-4.81-11.5-2.4-6-4.4-12.18-7.11-18-2.08-4.47-4-9-5.76-13.6-3.07-8.06-6.57-16-9.43-24.08C599.49,54.68,597.3,51.62,596.57,47.93Z"/><path class="cls-1" d="M112,0c.12.28.22.81.36.82a16.36,16.36,0,0,0,4.41.11c1.68-.37,2.56,1.12,4.1,1.16,3.6.09,15.35,3.6,18.85,5.1,4,1.71,7.77,3.78,11.69,5.56,4.25,1.94,7.8,4.78,11.29,7.63,2.37,1.94,5,3.52,7.13,5.87,6.22,7,10.94,15,15.16,23.24.93,5.87,4.37,11.16,4,17.33,2,4.06.74,8.38.95,12.58s.74,8.8-.12,12.95c-1.11,5.33-1.86,10.72-3.42,16A70.42,70.42,0,0,1,175,130.66c-6.65,9-15.49,15-25.16,20A81.36,81.36,0,0,1,132.43,157a65.11,65.11,0,0,1-9.68,2c-1.72.17-3.16,1.42-5.09,1.06a5.21,5.21,0,0,0-4.6.9c-.29.25-1,.09-1.47,0-6.75-.73-13.33,1.38-20.08,1.08s-13.33-.07-20-.07h-34a2.9,2.9,0,0,0-.36.34.84.84,0,0,0-.16.42c0,35.3,0,70.6,0,106.24H0V0ZM37.17,33v95.82a8,8,0,0,0,1.11.17c21.15,0,42.3,0,63.45,0,3.21,0,6.3-1.52,9.58-1,5-2.1,10.82-1.66,15.42-5,4-.4,6.82-3,9.84-5.15a36,36,0,0,0,8.55-8.3c5.22-7.16,7.22-15.25,7.77-23.75a49,49,0,0,0-.73-14.61,79.35,79.35,0,0,0-2.83-9.34c-2.22-6-6.36-10.63-10.91-15a54.77,54.77,0,0,0-12.52-8.42c-1.35-.71-3.43-.55-4.28-1.55-1.46-1.71-3.73.1-4.88-1.66-4.86-.69-9.54-2.33-14.56-2.29-16.82.13-33.64,0-50.46,0Z"/><path class="cls-1" d="M942,0V33.53a2.75,2.75,0,0,1-.35.31.89.89,0,0,1-.43.15H865.16V268.43c-4.13.78-23.95,1-37,.39V34.73a3.74,3.74,0,0,0-.49-.54.75.75,0,0,0-.42-.18H751V0Z"/><path class="cls-1" d="M290,0V234.45a2.83,2.83,0,0,0,.32.36.78.78,0,0,0,.42.18H409.83v33.75H253V0Z"/><path class="cls-1" d="M1085,0V268.46c-4,.75-23.88,1-37,.35V0Z"/><path class="cls-1" d="M337,672c-.12-.28-.22-.81-.36-.82a16.36,16.36,0,0,0-4.41-.11c-1.68.37-2.58-1.05-4.1-1.16-5.63-.42-10.91-2.44-16.11-4.47A91.67,91.67,0,0,1,294,656a42.21,42.21,0,0,1-6.4-5c-4-4.07-8.37-7.85-11.78-12.57a98.8,98.8,0,0,1-8.89-15.82c-1.63-3.56-2.59-7.28-4.05-10.82-1-2.41-.2-5.12-1.84-7.23.66-3-1.32-5.61-1.06-8.59s.06-6,.06-9c0-2.83.18-5.68-.05-8.49s.84-5.39,1-8.09,1.48-5.19,1.77-7.74c.56-5.08,2.84-9.56,4.55-14.16,1.65-4.44,4.58-8.47,7.3-12.44a64.09,64.09,0,0,1,8.14-10.09,99.91,99.91,0,0,1,17-13c6.41-3.95,13.51-6,20.45-8.57a15.92,15.92,0,0,1,5.94-1.24c2.05.1,3.52-1.49,5.59-1.18,1.7.26,3.51.39,5.13-.87.52-.4,1.61-.06,2.45-.06,4,0,8,.15,12,0,8.43-.37,16.69,1.11,24.7,3.2,7.43,1.93,14.76,4.66,21.08,9.38a18.16,18.16,0,0,0,1.68.74A8.53,8.53,0,0,1,400,515.5c0,.48.27,1.36,0,1.73-1.88,2.17-2.55,5.08-4.17,7.24-2.2,2.95-3.36,6.32-5.35,9.59-3-.61-5.15-3.09-8-4.28-5.15-2.14-13.41-4.53-18-6-3.19-1-6.39-.12-9.44-1.3s-6.54-.1-9.78-.56c-2.21-.31-4.06.7-6.08,1.06s-4-.93-5.59,1c-7.54.36-14,3.82-20.58,7-3,1.46-6,3.1-8.1,5.72-1.28,1.58-3.5,1.91-4.52,3.53-1.49,2.37-3.64,4.14-5.25,6.33a33.2,33.2,0,0,0-4.92,8.43c-1.07,3.08-3.1,5.74-3.66,9a74.69,74.69,0,0,1-1.68,7.82c-.87,2.95-.11,5.91-.92,8.61a20.87,20.87,0,0,0-.82,8.11,107.46,107.46,0,0,0,2.07,15.64c1.14,4.75,2.45,9.59,4.89,13.94,2.24,4,5.13,7.58,7.7,11.34,3.22,4.72,7.87,7.43,12.09,10.74,4.75,3.72,14.55,7.36,20.82,8.84a110.54,110.54,0,0,0,13.66,2.14c3.19.35,6.38.75,9.6.8,3.89.07,7.66-1,11.57-1.18,3.62-.14,7.15-1.94,10.77-2.78,2.78-.65,4.93-2.58,7.68-3.36V603.16H345.24v-20h59.53v74.51a9.47,9.47,0,0,1-3.81,2.92c-4.48,2.07-8.79,4.44-13.61,5.81-1.73.48-3.62.6-5.39,1.44a21.59,21.59,0,0,1-5.47,1.35c-4,.61-8,1.87-12.13,2-.13,0-.24.53-.36.82Z"/><path class="cls-1" d="M1091,672a.79.79,0,0,0-.79-1,40.41,40.41,0,0,1-6.12-.86c-9.31-2.12-18-4.78-25.18-9.23-3.08-1.9-6.35-3.64-8.89-6.37-1.76-1.88-4.23-2.91-6-4.93A111.54,111.54,0,0,1,1032,633.13a108.37,108.37,0,0,1-6.35-13.87c-.73-1.77-.57-3.64-1.46-5.41-.77-1.55-.85-3.71-1.3-5.47-2.71-10.65-2.25-21.5-1.64-32.19.49-8.66,3-17.11,6.23-25.34a83.6,83.6,0,0,1,12-20.47,70,70,0,0,1,12-11.58,86.57,86.57,0,0,1,16.74-10.41c4.19-2,8.72-3.09,13.14-4.5s9.33-1.28,13.8-2.85a8,8,0,0,1,2.49,0c4.66,0,9.33,0,14,0a93.6,93.6,0,0,1,28.4,5.05,44.85,44.85,0,0,1,11.35,5.08c3.26,2.23,7.07,3.92,9.74,7.66-3.22,6.3-8,11.92-11.69,18.2-3.19-.45-5-3.19-7.52-4.72-6.54-3.93-11.75-6.11-18.47-7.38-3.39-.64-6.79-1.43-10.2-1.81a64,64,0,0,0-11,0c-4.88.3-9.62,1.57-14.42,2.48-5.17,1-9.61,3.44-14.21,5.57a40.35,40.35,0,0,0-7.8,5.41c-2.91,2.33-5,5.3-7.63,7.82-1.86,1.78-2.92,4.09-4.29,6.21a57.89,57.89,0,0,0-7.54,18.85,39.09,39.09,0,0,0-1.36,9.48c.09,4.83,0,9.66,0,14.49.1,7.82,2.31,15.19,5.25,22.32a59.06,59.06,0,0,0,8.67,14,49.1,49.1,0,0,0,18.21,13.92c4.63,2.18,9.41,4.15,14.66,4.45,2.73,2.14,6.14.64,9.25,1.77,2.94,1.07,6.59.38,9.91.18,2.2-.14,4.4.6,6.67-.82,1.61-1,4.23.76,6-1.13,7.69-.38,14.3-4,21-7.24a19.06,19.06,0,0,0,6.27-4.17c1.2-1.37,2.79-2,4.79-2.74,3.45,6.33,6.92,12.71,10.37,19.06-4.12,4.52-10,6.32-14.58,10.09-2.72-.14-4.54,1.9-6.83,2.8a70,70,0,0,1-7.09,2.19c-5.33,1.47-10.63,3.13-16.25,3-.68,0-1.38,0-1.3,1Z"/><path class="cls-1" d="M0,399H557.61c.85,1.49.1,3.12.56,5H0Z"/><path class="cls-1" d="M1404,404H846.39c-.85-1.49-.1-3.12-.56-5H1404Z"/><path class="cls-1" d="M877.43,668.82c-1.73-2.76-3-5.54-4.95-7.7-3.33-3.69-5.42-8.19-8.49-12-4.06-5.06-7.11-10.82-11.19-15.88-2.36-2.92-4.22-6.25-6.42-9.31-4-5.65-7.71-11.55-11.9-17.11-3-4-5.47-8.41-8.47-12.45-4-5.31-7.16-11.15-11.37-16.31-2.48-3-4.38-6.52-6.66-9.71-3.75-5.27-7.1-10.8-11-16-2-2.6-4.09-5.17-5.38-8.25a1,1,0,0,0-.35.14.68.68,0,0,0-.25.39q0,62,0,124.15H769.11V504.19H790c2.84,4,5.92,8.44,9,12.82,3.76,5.28,7.7,10.44,11.28,15.84,3.74,5.66,7.83,11.08,11.6,16.71,1.5,2.24,3.43,4.14,4.7,6.52a66.48,66.48,0,0,0,4.52,6.65c3.17,4.52,6.29,9.08,9.6,13.51s6.54,9.31,9.78,14c3.85,5.55,7.83,11,11.55,16.66,2.87,4.36,6.09,8.48,9.07,12.76,1.88,2.69,3.62,5.48,5.43,8.23a.63.63,0,0,0,.24-.14.7.7,0,0,0,.22-.4c0-41,0-82,0-123.12h21.91V668.82Z"/><path class="cls-1" d="M92.68,504.18c1.9,1.73,2.12,4.14,2.82,6.06,1.67,4.65,3.73,9.15,5.62,13.68s3.64,9.16,5.66,13.66c1.55,3.45,3,7.1,4.23,10.74A112.44,112.44,0,0,0,115.42,559a83.5,83.5,0,0,1,4.51,11.12,119.83,119.83,0,0,0,4.27,11.23c1.92,4.52,3.68,9.15,5.69,13.65,2.63,5.89,5,11.9,7.17,18,1.57,4.49,3.75,8.78,5.61,13.17s3.78,8.45,5.26,12.81c1.4,4.1,3.11,8.06,4.71,12,1.89,4.71,3.34,9.63,6,14,.73,1.24.37,2.47.22,3.82H133.92c-5.72-13.31-10.92-27-16.2-40.76H45.48L30,669H5.14c0-3.55,1.9-6.17,3-9,2-5.17,3.77-10.43,5.93-15.54,2.81-6.67,5.6-13.34,8-20.19,1.37-3.92,3.26-7.65,4.67-11.55,2.63-7.24,6-14.21,8.35-21.55,1.28-3.94,3.33-7.62,4.72-11.53,2-5.52,4.49-10.81,6.28-16.4,1.27-3.95,3.27-7.65,4.68-11.55,2.62-7.25,5.95-14.21,8.32-21.56,1.41-4.38,3.4-8.58,5.14-12.86s3.5-8.55,5.37-13.12Zm18.67,103.71a7.72,7.72,0,0,1-1.41-2.06c-1.92-3.7-3-7.75-4.74-11.54a72.9,72.9,0,0,1-3.17-7.17c-2.63-8.07-6.11-15.8-9.23-23.67-1.75-4.41-3.73-8.8-5.61-13.16-2.31-5.35-4.32-10.87-6.54-16.26Q66.38,571,52.14,607.89Z"/><path class="cls-1" d="M559.18,573h69.67v18.88H559.12v55.9h80.79c.19,7.07,0,14,.11,21H536.23V504.13H639.79V525H559.18Z"/><path class="cls-1" d="M1262.41,504.19H1289l43.5,70c7.83-11.65,14.68-23.63,22-35.31s14.4-23.41,21.45-34.9h24.5a1.87,1.87,0,0,1,.26,2.63c-2.2,2.34-3.12,5.42-4.88,8-4.66,6.84-8.89,14-13.23,21-2.12,3.45-4.28,6.94-6.6,10.31-3.45,5-6.54,10.28-9.8,15.44-4.67,7.4-9,15-14.21,22.09-1.17,4.32-5,7.15-6.4,11.35-.19.57-.91,1-1.55,1.6V668.8h-23V598.14c-5.15-8.07-10.29-15.75-15-23.66s-9.72-15.63-14.55-23.46-9.72-15.29-14.48-23S1267.06,512.66,1262.41,504.19Z"/><path class="cls-1" d="M702.49,416.41c-6.22-19.54-12.34-38.76-18.5-58.13.72-3.27,3.78-4.95,5.63-7.52,2-2.8,4.8-4.94,6.66-7.73s4.31-4.76,6.59-7.54c2.45,2.53,4.81,4.52,6.64,7.32s4.65,4.91,6.66,7.73c1.84,2.59,4.87,4.29,5.93,7.92-3.17,9.7-6.83,19.56-9.56,29.67-2,7.48-5.57,14.5-6.54,22.26C704.48,412,705.26,414.72,702.49,416.41Z"/><path class="cls-1" d="M786,409.5l-3.41,3.41a22.71,22.71,0,0,1-11-1.58c-1.87-.82-4.28-.87-6.45-1.28-2-.38-4.14.33-6.11-1-1.26-.85-2.18,1-3.55,1-6.58-.27-12.15,2.46-17.54,5.9a20,20,0,0,0-2.91,2.56c-2.78,2.61-5.23,5.61-9,7.34a34.68,34.68,0,0,1,5-20.82,31.41,31.41,0,0,1,5.84-6.55,27.7,27.7,0,0,1,8.7-5.63c3.83-1.51,7.65-2.82,11.81-2.83,2.17,0,4.34-.06,6.5,0a31.21,31.21,0,0,1,18.18,6.7A10,10,0,0,1,786,405C786,406.53,786,408,786,409.5Z"/><path class="cls-1" d="M679.76,425.21c-2.14-.53-2.9-1.9-3.92-2.91a48.47,48.47,0,0,0-14.3-10.15c-2.38-1-4.82-2.39-7.61-2.14-1.8.15-3.17-1.17-5.09-1.15-2.94,0-5.71.91-8.58,1.09a27.15,27.15,0,0,0-8.17,2,15.3,15.3,0,0,1-6.67,1.08c-6.32-1.9-5.44-6.42-5.4-10.22,1.49-3,2.74-5.87,5.33-7.64A29.77,29.77,0,0,1,634.1,391a19.4,19.4,0,0,1,6.58-1.07c3.32.2,6.66.08,10,0,2.9,0,5.48,1.16,8.18,1.95a30,30,0,0,1,10.11,5.7A27.39,27.39,0,0,1,677.52,410C679.25,414.82,680.66,419.66,679.76,425.21Z"/><path class="cls-1" d="M715,443.22c-1.87,3.61-3.33,7.25-8.5,8.78-.81,0-2.79-.07-4.77,0-4.15.17-6.57-1.94-8.81-5.34-2-3-1.83-6-1.84-8.86,1.89-3.64,3.35-7.28,8.29-8.74,4.85-.38,10.68-.95,14.28,5.23A16.1,16.1,0,0,1,715,443.22Z"/></g></g></svg>